<?xml version="1.0" encoding="UTF-8"?>
<svg xmlns="http://www.w3.org/2000/svg" xmlns:xlink="http://www.w3.org/1999/xlink" width="24px" height="24px" viewBox="0 0 24 24" version="1.1">
<g id="surface1">
<path style=" stroke:none;fill-rule:nonzero;fill:rgb(0%,0%,0%);fill-opacity:1;" d="M 18.75 0 L 5.25 0 C 2.351562 0 0 2.351562 0 5.25 L 0 18.75 C 0 21.648438 2.351562 24 5.25 24 L 18.75 24 C 21.648438 24 24 21.648438 24 18.75 L 24 5.25 C 24 2.351562 21.648438 0 18.75 0 Z M 22.5 18.75 C 22.5 20.820312 20.820312 22.5 18.75 22.5 L 5.25 22.5 C 3.179688 22.5 1.5 20.820312 1.5 18.75 L 1.5 5.25 C 1.5 3.179688 3.179688 1.5 5.25 1.5 L 18.75 1.5 C 20.820312 1.5 22.5 3.179688 22.5 5.25 Z M 22.5 18.75 "/>
<path style=" stroke:none;fill-rule:nonzero;fill:rgb(0%,0%,0%);fill-opacity:1;" d="M 14.78125 6.21875 L 13.71875 7.28125 L 17.691406 11.25 L 3.75 11.25 L 3.75 12.75 L 17.691406 12.75 L 13.726562 16.71875 L 14.78125 17.773438 L 20.03125 12.523438 C 20.324219 12.234375 20.324219 11.761719 20.03125 11.46875 Z M 14.78125 6.21875 "/>
</g>
</svg>
